<?xml version="1.0" encoding="utf-8"?>
<!-- Generator: Adobe Illustrator 19.0.0, SVG Export Plug-In . SVG Version: 6.00 Build 0)  -->
<svg version="1.1" id="Layer_1" xmlns="http://www.w3.org/2000/svg" xmlns:xlink="http://www.w3.org/1999/xlink" x="0px" y="0px"
	 viewBox="0 0 16 16" style="enable-background:new 0 0 16 16;" xml:space="preserve">
<style type="text/css">
	.st0{fill:#010101;}
	.st1{fill:#FFFFFF;}
	.st2{fill:none;stroke:#010101;stroke-width:0.1;stroke-linejoin:round;stroke-miterlimit:10;}
	.st3{fill:#F6E81A;}
	.st4{fill:#EE5D2F;stroke:#040404;stroke-width:0.1;stroke-miterlimit:10;}
</style>
<g id="XMLID_54_">
	<g id="XMLID_6_">
		<g id="XMLID_1_">
			<path id="XMLID_15_" class="st0" d="M14.5,44c-0.1,1-0.2,2-0.2,3c0,1,0.1,2,0.3,3c0.2,1,0.5,2,0.8,2.9c0.6,1.8,1.4,3.5,2.3,5.1
				c0.1-0.1,0.1-0.2,0.2-0.3l0,0.6c-0.1-0.1-0.1-0.2-0.2-0.3c-0.5,0.8-0.9,1.6-1.3,2.5c-0.4,1-0.8,2-1.1,3c-0.6,2.1-0.9,4.2-0.7,6.4
				c0.2,2.2,0.8,4.3,1.9,6.1c0.5,0.9,1.1,1.8,1.8,2.6c0.7,0.8,1.4,1.5,2.2,2.2c0.8,0.7,1.6,1.3,2.5,1.8c0.9,0.5,1.8,1,2.7,1.4
				c1.9,0.8,3.8,1.2,5.8,1.1c2,0,3.9-0.5,5.8-1.4c0.9-0.4,1.8-0.9,2.6-1.5c0.7-0.5,1.4-1,2-1.6c0,0,0,0,0,0
				c-0.6,0.6-1.3,1.1-2.1,1.6c-0.8,0.5-1.7,1-2.6,1.4c-1.8,0.8-3.7,1.2-5.7,1.1c-1,0-1.9-0.1-2.9-0.4c-0.9-0.2-1.9-0.5-2.7-0.9
				c-0.9-0.4-1.7-0.9-2.6-1.4c-0.8-0.5-1.6-1.1-2.4-1.8c-0.7-0.6-1.5-1.3-2.1-2.1c-0.6-0.8-1.2-1.6-1.7-2.5c-1-1.8-1.5-3.7-1.6-5.8
				c-0.1-1,0-2,0.1-3c0.1-1,0.4-2,0.7-3c0.3-1,0.7-1.9,1.1-2.8c0.4-0.9,0.9-1.8,1.4-2.6l0.2-0.3l-0.2-0.3c-0.9-1.7-1.7-3.4-2.3-5.2
				c-0.3-0.9-0.5-1.8-0.7-2.7c-0.2-0.9-0.3-1.9-0.3-2.8c0-0.9,0-1.9,0.2-2.8c0.1-0.5,0.1-0.9,0.3-1.4c0.1-0.5,0.2-0.9,0.4-1.4
				c0.3-0.9,0.6-1.8,1-2.6c0.4-0.8,0.9-1.6,1.4-2.4c0.5-0.7,1.1-1.4,1.8-2c0.7-0.6,1.4-1.1,2.2-1.5c0.8-0.4,1.6-0.7,2.5-1
				c0.9-0.2,1.7-0.4,2.6-0.5c1.8-0.1,3.6,0,5.3,0.3c0.9,0.2,1.8,0.4,2.6,0.6c0.9,0.2,1.7,0.5,2.5,0.9l0.5,0.2L39,33
				c0.4-0.9,1-1.8,1.6-2.7c0.6-0.9,1.2-1.7,1.9-2.4c1.4-1.5,3-2.8,4.8-3.6c0.9-0.4,1.8-0.7,2.8-0.9c1-0.2,1.9-0.3,2.9-0.2
				c2,0.1,3.9,0.7,5.7,1.6c0.9,0.4,1.8,1,2.6,1.5c0.8,0.6,1.6,1.2,2.4,1.9c0.7,0.7,1.4,1.5,2,2.4c0.6,0.9,1.1,1.8,1.4,2.8
				c0.8,2,1.1,4.2,1,6.3c0,1.1-0.2,2.2-0.4,3.2c-0.2,1.1-0.5,2.1-0.8,3.1c0.4-1,0.7-2,1-3.1c0.2-1.1,0.4-2.1,0.5-3.2
				c0-0.3,0-0.5,0-0.8c0-1.9-0.2-3.9-0.9-5.7c-0.4-1-0.8-2-1.4-2.9c-0.6-0.9-1.2-1.8-2-2.5c-0.8-0.8-1.6-1.5-2.4-2.1
				c-0.9-0.6-1.8-1.1-2.7-1.6c-1.9-1-3.9-1.6-6-1.8c-1-0.1-2.1,0-3.1,0.1c-1,0.2-2,0.5-3,0.9c-1.3,0.6-2.5,1.3-3.6,2.3
				c0.3,0.2,0.4,0.3,0.4,0.3s-0.2-0.1-0.5-0.2c-0.5,0.4-1,0.9-1.5,1.4c-0.7,0.8-1.4,1.6-2.1,2.5c-0.5,0.8-1,1.5-1.5,2.4
				c0.1,0.1,0.3,0.1,0.4,0.2L38,32.5c0.1-0.2,0.2-0.3,0.2-0.5c-0.7-0.3-1.5-0.5-2.2-0.8c-0.9-0.3-1.8-0.5-2.7-0.7
				c-1.8-0.3-3.7-0.5-5.6-0.3c-0.1,0-0.3,0-0.4,0C27,30.8,26.8,31,26.8,31s0.1-0.2,0.2-0.6c-0.7,0.1-1.4,0.2-2.2,0.4
				c-0.9,0.2-1.8,0.6-2.7,1c-0.9,0.4-1.7,1-2.4,1.6c-0.7,0.6-1.4,1.4-2,2.2c-0.6,0.8-1.1,1.7-1.5,2.6c-0.4,0.9-0.8,1.8-1.1,2.8
				c-0.1,0.5-0.3,1-0.4,1.5C14.7,43,14.6,43.5,14.5,44z"/>
			<path id="XMLID_14_" class="st1" d="M15.6,66.9c-0.1,1-0.2,2-0.1,3c0.1,2,0.7,4,1.6,5.8c0.5,0.9,1,1.7,1.7,2.5
				c0.6,0.8,1.3,1.5,2.1,2.1c0.7,0.6,1.5,1.3,2.4,1.8c0.8,0.5,1.7,1,2.6,1.4c0.9,0.4,1.8,0.7,2.7,0.9c0.9,0.2,1.9,0.3,2.9,0.4
				c1.9,0,3.9-0.4,5.7-1.1c0.9-0.4,1.8-0.8,2.6-1.4c0.7-0.5,1.4-1,2.1-1.6c-0.8-1.1-1.4-2.2-1.8-3.3c-0.5-1.3-0.9-2.6-1.1-3.7
				c-0.2-1.1-0.3-2.1-0.4-2.9c0-0.8,0-1.5,0-1.9c0-0.4,0-0.7,0-0.7s0,0.2,0,0.7s0.1,1.1,0.2,1.9c0.1,0.8,0.3,1.8,0.6,2.9
				c0.3,1.1,0.7,2.3,1.3,3.5c0.6,1.2,1.4,2.5,2.3,3.6c0.5,0.6,1,1.2,1.6,1.7c0.1,0.1,0.3,0.3,0.4,0.4c0.1,0.1,0.3,0.3,0.5,0.4
				c0.3,0.2,0.6,0.5,1,0.7c0.7,0.5,1.4,0.9,2.1,1.2c0.4,0.2,0.7,0.4,1.1,0.5c0.4,0.2,0.8,0.3,1.2,0.4c0.8,0.3,1.6,0.5,2.4,0.6
				c0.4,0.1,0.8,0.1,1.2,0.2c0.4,0.1,0.9,0.1,1.3,0.1c1.7,0.1,3.4,0.1,5.1-0.1c1.7-0.2,3.3-0.6,4.7-1.3c1.4-0.7,2.7-1.6,3.8-2.6
				c1.1-1,1.9-2.2,2.6-3.4c0.6-1.2,1.1-2.3,1.5-3.4c0.3-1.1,0.6-2,0.7-2.8c0.2-1,0.3-1.8,0.3-2.2c-0.6,0.2-1.2,0.4-1.7,0.6
				c-0.9,0.3-1.7,0.5-2.4,0.6c-0.7,0.1-1.2,0.2-1.5,0.3c-0.4,0-0.6,0.1-0.6,0.1s0.2,0,0.5-0.1c0.3-0.1,0.9-0.2,1.5-0.4
				c1.3-0.4,3.1-1.1,5.1-2.2c1-0.6,2.1-1.2,3.1-2c1-0.8,2-1.8,2.9-3c0.9-1.2,1.5-2.5,2-4c0.4-1.5,0.6-3.1,0.5-4.6c0-0.2,0-0.4,0-0.6
				l-0.1-0.6l-0.1-0.6l0-0.1l0,0l0,0l0-0.1l0-0.3c-0.1-0.8-0.3-1.6-0.5-2.3c-0.4-1.5-0.9-3-1.6-4.3c-0.7-1.3-1.5-2.5-2.4-3.5
				c-0.9-1-1.9-1.8-2.8-2.4c-2-1.2-3.8-1.8-5.1-2.1C69.9,39,69.1,39,69.1,39l-0.7,0c0,0.3,0,0.5,0,0.8c-0.1,1.1-0.2,2.2-0.5,3.2
				c-0.2,1.1-0.5,2.1-1,3.1c0.4-1,0.6-2.1,0.8-3.1c0.2-1.1,0.3-2.1,0.4-3.2c0.1-2.2-0.2-4.3-1-6.3c-0.4-1-0.9-1.9-1.4-2.8
				c-0.6-0.9-1.2-1.7-2-2.4c-0.7-0.7-1.5-1.4-2.4-1.9c-0.8-0.6-1.7-1.1-2.6-1.5c-1.8-0.9-3.7-1.5-5.7-1.6c-1-0.1-2,0-2.9,0.2
				c-1,0.2-1.9,0.5-2.8,0.9c-1.8,0.8-3.4,2.1-4.8,3.6c-0.7,0.7-1.3,1.6-1.9,2.4C40,31.2,39.4,32.1,39,33l-0.2,0.5l-0.5-0.2
				c-0.8-0.3-1.7-0.6-2.5-0.9c-0.9-0.2-1.7-0.5-2.6-0.6c-1.8-0.3-3.6-0.4-5.3-0.3c-0.9,0.1-1.8,0.2-2.6,0.5c-0.9,0.2-1.7,0.5-2.5,1
				c-0.8,0.4-1.5,0.9-2.2,1.5c-0.7,0.6-1.3,1.3-1.8,2c-0.5,0.7-1,1.5-1.4,2.4c-0.4,0.8-0.7,1.7-1,2.6c-0.1,0.5-0.3,0.9-0.4,1.4
				c-0.1,0.5-0.2,0.9-0.3,1.4c-0.1,0.9-0.2,1.9-0.2,2.8c0,0.9,0.1,1.9,0.3,2.8c0.2,0.9,0.4,1.8,0.7,2.7c0.6,1.8,1.4,3.5,2.3,5.2
				l0.2,0.3l-0.2,0.3c-0.5,0.8-1,1.7-1.4,2.6c-0.4,0.9-0.8,1.9-1.1,2.8C16,64.9,15.7,65.8,15.6,66.9z"/>
			<path id="XMLID_13_" class="st0" d="M17.7,58.1c0.1,0.1,0.1,0.2,0.2,0.3l0-0.6C17.9,57.9,17.8,58,17.7,58.1z"/>
			<path id="XMLID_12_" class="st0" d="M27,30.4c-0.1,0.4-0.2,0.6-0.2,0.6s0.2-0.2,0.5-0.7C27.2,30.3,27.1,30.3,27,30.4z"/>
			<path id="XMLID_11_" class="st0" d="M27,30.4c0.1,0,0.2,0,0.2,0c0,0,0-0.1,0.1-0.1c0.1-0.2,0.4-0.5,0.6-0.8
				c0.2-0.3,0.5-0.7,0.8-1c0.1-0.2,0.3-0.4,0.5-0.5c0.1-0.1,0.2-0.2,0.3-0.3c0.1-0.1,0.2-0.2,0.3-0.3c0.2-0.2,0.4-0.4,0.6-0.5
				c0.2-0.2,0.4-0.4,0.7-0.5c0.1-0.1,0.2-0.2,0.4-0.2c0.1-0.1,0.2-0.1,0.4-0.2c0.1-0.1,0.3-0.1,0.4-0.2c0.1-0.1,0.3-0.1,0.4-0.2
				c0.3-0.1,0.5-0.2,0.8-0.3c0.3-0.1,0.6-0.2,0.9-0.3c0.3-0.1,0.6-0.1,0.9-0.2c0.3,0,0.6-0.1,0.9-0.1c0.6,0,1.2,0,1.7,0
				c0.6,0,1.1,0.1,1.6,0.2c0.5,0.1,1,0.2,1.5,0.3c0.9,0.2,1.6,0.5,2.2,0.7c0.1,0,0.2,0.1,0.3,0.1c0,0,0.1-0.1,0.1-0.1
				c-0.1-0.1-0.2-0.1-0.3-0.2c-0.2-0.2-0.5-0.4-0.9-0.5c-0.3-0.2-0.7-0.4-1.2-0.6c-0.4-0.2-0.9-0.4-1.5-0.6
				c-0.5-0.2-1.1-0.3-1.7-0.4c-0.6-0.1-1.2-0.1-1.9-0.1c-0.6,0-1.3,0.1-2,0.3c-0.3,0.1-0.6,0.2-1,0.3c-0.3,0.1-0.6,0.2-0.9,0.4
				c-0.1,0.1-0.3,0.2-0.4,0.2c-0.1,0.1-0.3,0.2-0.4,0.3c-0.1,0.1-0.3,0.2-0.4,0.3c-0.1,0.1-0.3,0.2-0.4,0.3
				c-0.3,0.2-0.5,0.4-0.7,0.6c-0.2,0.2-0.4,0.4-0.6,0.7c-0.1,0.1-0.2,0.2-0.3,0.3c-0.1,0.1-0.2,0.2-0.2,0.3
				c-0.2,0.2-0.3,0.4-0.4,0.7c-0.3,0.4-0.5,0.8-0.7,1.2c-0.2,0.4-0.3,0.7-0.4,1C27.1,30.2,27.1,30.3,27,30.4z"/>
			<path id="XMLID_10_" class="st1" d="M27.3,30.2C27.3,30.3,27.3,30.3,27.3,30.2c0.1,0.1,0.2,0.1,0.4,0c1.9-0.2,3.8,0,5.6,0.3
				c0.9,0.2,1.8,0.4,2.7,0.7c0.8,0.2,1.5,0.5,2.2,0.8c0.4-0.8,0.9-1.6,1.5-2.4c0.6-0.9,1.3-1.7,2.1-2.5c0.5-0.5,1-1,1.5-1.4
				c-0.1,0-0.2-0.1-0.3-0.1c-0.5-0.2-1.3-0.5-2.2-0.7c-0.4-0.1-0.9-0.2-1.5-0.3c-0.5-0.1-1.1-0.2-1.6-0.2c-0.6,0-1.1,0-1.7,0
				c-0.3,0-0.6,0.1-0.9,0.1c-0.3,0-0.6,0.1-0.9,0.2c-0.3,0.1-0.6,0.2-0.9,0.3c-0.3,0.1-0.6,0.2-0.8,0.3c-0.1,0.1-0.3,0.1-0.4,0.2
				c-0.1,0.1-0.3,0.1-0.4,0.2c-0.1,0.1-0.3,0.1-0.4,0.2c-0.1,0.1-0.2,0.2-0.4,0.2c-0.2,0.1-0.5,0.3-0.7,0.5
				c-0.2,0.2-0.4,0.4-0.6,0.5c-0.1,0.1-0.2,0.2-0.3,0.3c-0.1,0.1-0.2,0.2-0.3,0.3c-0.2,0.2-0.4,0.4-0.5,0.5c-0.3,0.4-0.6,0.7-0.8,1
				C27.7,29.7,27.5,30,27.3,30.2z"/>
			<path id="XMLID_9_" class="st0" d="M38,32.5l0.7-0.3c-0.1-0.1-0.3-0.1-0.4-0.2C38.2,32.2,38.1,32.4,38,32.5z"/>
			<path id="XMLID_8_" class="st0" d="M38.5,68.8c0,0.4,0,1.1,0,1.9c0,0.8,0.1,1.8,0.4,2.9c0.2,1.1,0.6,2.4,1.1,3.7
				c0.4,1.1,1,2.2,1.8,3.3c0.1-0.1,0.2-0.2,0.3-0.3c-0.1,0.1-0.2,0.2-0.3,0.3c0.1,0.2,0.3,0.4,0.4,0.6c1,1.3,2.2,2.5,3.6,3.5
				c1.4,1,3,1.8,4.6,2.4c0.8,0.3,1.7,0.5,2.6,0.7c0.4,0.1,0.9,0.2,1.3,0.2c0.2,0,0.4,0.1,0.7,0.1l0.6,0.1c1.8,0.1,3.6,0.1,5.3-0.2
				c1.7-0.2,3.4-0.7,5-1.5c1.5-0.7,2.9-1.8,4-2.9c1.1-1.2,1.9-2.5,2.6-3.7c0.6-1.3,1-2.5,1.3-3.6c0.3-1.1,0.4-2.1,0.5-2.9
				c0.1-0.8,0.1-1.5,0.1-1.9c0-0.1,0-0.2,0-0.3c0,0,0,0,0,0c0,0.4-0.1,1.2-0.3,2.2c-0.1,0.8-0.4,1.8-0.7,2.8
				c-0.3,1.1-0.8,2.2-1.5,3.4c-0.7,1.2-1.5,2.3-2.6,3.4c-1.1,1-2.4,1.9-3.8,2.6c-1.4,0.7-3,1.1-4.7,1.3c-1.6,0.2-3.4,0.2-5.1,0.1
				c-0.4,0-0.9-0.1-1.3-0.1c-0.4-0.1-0.8-0.1-1.2-0.2c-0.8-0.1-1.6-0.4-2.4-0.6c-0.4-0.1-0.8-0.3-1.2-0.4c-0.4-0.1-0.8-0.3-1.1-0.5
				c-0.7-0.4-1.5-0.8-2.1-1.2c-0.3-0.2-0.7-0.5-1-0.7c-0.1-0.1-0.3-0.3-0.5-0.4c-0.2-0.1-0.3-0.3-0.4-0.4c-0.6-0.5-1.1-1.1-1.6-1.7
				c-1-1.2-1.7-2.4-2.3-3.6c-0.6-1.2-1-2.4-1.3-3.5c-0.3-1.1-0.5-2-0.6-2.9C38.6,69.9,38.6,69.2,38.5,68.8c0-0.4,0-0.7,0-0.7
				S38.5,68.4,38.5,68.8z"/>
			<path id="XMLID_7_" class="st0" d="M41.8,80.6C41.8,80.6,41.8,80.6,41.8,80.6c0.1-0.1,0.2-0.2,0.3-0.3
				C42,80.4,41.9,80.5,41.8,80.6z"/>
			<path id="XMLID_5_" class="st0" d="M43.4,25.7c0,0-0.1,0.1-0.1,0.1c0.3,0.1,0.5,0.2,0.5,0.2S43.6,25.9,43.4,25.7z"/>
			<path id="XMLID_4_" class="st0" d="M83.6,54.3L83.6,54.3l0,0.1l0.1,0.6l0.1,0.6c0,0.2,0,0.4,0,0.6c0.1,1.6-0.1,3.2-0.5,4.6
				c-0.4,1.5-1.1,2.8-2,4c-0.9,1.2-1.9,2.2-2.9,3c-1,0.8-2.1,1.5-3.1,2c-2,1.1-3.9,1.8-5.1,2.2c-0.6,0.2-1.2,0.3-1.5,0.4
				c-0.4,0.1-0.5,0.1-0.5,0.1s0.2,0,0.6-0.1c0.4,0,0.9-0.1,1.5-0.3c0.7-0.1,1.5-0.3,2.4-0.6c0.5-0.2,1.1-0.4,1.7-0.6
				c0-0.2,0-0.3,0-0.3s0,0.1,0,0.3c0.4-0.2,0.8-0.3,1.2-0.5c1.1-0.5,2.2-1.1,3.3-1.9c1.1-0.8,2.2-1.8,3.2-3.1c1-1.2,1.8-2.7,2.3-4.3
				c0.5-1.6,0.7-3.3,0.6-5.1c0-0.2,0-0.4,0-0.6l-0.1-0.6l-0.1-0.6l0-0.1l0,0l0,0l0,0l0-0.2l-0.1-0.3c-0.1-0.8-0.3-1.6-0.5-2.5
				c-0.4-1.6-1-3.1-1.8-4.5c-0.7-1.4-1.7-2.6-2.7-3.6c-1-1-2.1-1.8-3.1-2.3c-1.1-0.6-2.1-1-3-1.2c-0.9-0.3-1.7-0.4-2.4-0.5
				C70.5,39,70,39,69.6,39c-0.4,0-0.6,0-0.6,0s0.8,0,2.1,0.3c1.3,0.3,3.2,0.9,5.1,2.1c1,0.6,1.9,1.4,2.8,2.4c0.9,1,1.7,2.1,2.4,3.5
				c0.7,1.3,1.2,2.8,1.6,4.3c0.2,0.8,0.4,1.5,0.5,2.3l0,0.3L83.6,54.3L83.6,54.3z"/>
			<path id="XMLID_3_" class="st0" d="M74.3,71.1C74.3,71.1,74.3,71.1,74.3,71.1c0-0.2,0-0.3,0-0.3S74.3,70.9,74.3,71.1z"/>
		</g>
		<g id="XMLID_2_">
			<path id="XMLID_57_" class="st2" d="M17.7,58.1c-0.5,0.8-0.9,1.6-1.3,2.5c-0.4,1-0.8,2-1.1,3c-0.6,2.1-0.9,4.2-0.7,6.4
				c0.2,2.2,0.8,4.3,1.9,6.1c0.5,0.9,1.1,1.8,1.8,2.6c0.7,0.8,1.4,1.5,2.2,2.2c0.8,0.7,1.6,1.3,2.5,1.8c0.9,0.5,1.8,1,2.7,1.4
				c1.9,0.8,3.8,1.2,5.8,1.1c2,0,3.9-0.5,5.8-1.4c0.9-0.4,1.8-0.9,2.6-1.5c0.7-0.5,1.4-1,2-1.6c0.1-0.1,0.2-0.2,0.3-0.3
				c-0.1,0.1-0.2,0.2-0.3,0.3c-0.6,0.6-1.3,1.1-2.1,1.6c-0.8,0.5-1.7,1-2.6,1.4c-1.8,0.8-3.7,1.2-5.7,1.1c-1,0-1.9-0.1-2.9-0.4
				c-0.9-0.2-1.9-0.5-2.7-0.9c-0.9-0.4-1.7-0.9-2.6-1.4c-0.8-0.5-1.6-1.1-2.4-1.8c-0.7-0.6-1.5-1.3-2.1-2.1
				c-0.6-0.8-1.2-1.6-1.7-2.5c-1-1.8-1.5-3.7-1.6-5.8c-0.1-1,0-2,0.1-3c0.1-1,0.4-2,0.7-3c0.3-1,0.7-1.9,1.1-2.8
				c0.4-0.9,0.9-1.8,1.4-2.6l0.2-0.3l-0.2-0.3c-0.9-1.7-1.7-3.4-2.3-5.2c-0.3-0.9-0.5-1.8-0.7-2.7c-0.2-0.9-0.3-1.9-0.3-2.8
				c0-0.9,0-1.9,0.2-2.8c0.1-0.5,0.1-0.9,0.3-1.4c0.1-0.5,0.2-0.9,0.4-1.4c0.3-0.9,0.6-1.8,1-2.6c0.4-0.8,0.9-1.6,1.4-2.4
				c0.5-0.7,1.1-1.4,1.8-2c0.7-0.6,1.4-1.1,2.2-1.5c0.8-0.4,1.6-0.7,2.5-1c0.9-0.2,1.7-0.4,2.6-0.5c1.8-0.1,3.6,0,5.3,0.3
				c0.9,0.2,1.8,0.4,2.6,0.6c0.9,0.2,1.7,0.5,2.5,0.9l0.5,0.2L39,33c0.4-0.9,1-1.8,1.6-2.7c0.6-0.9,1.2-1.7,1.9-2.4
				c1.4-1.5,3-2.8,4.8-3.6c0.9-0.4,1.8-0.7,2.8-0.9c1-0.2,1.9-0.3,2.9-0.2c2,0.1,3.9,0.7,5.7,1.6c0.9,0.4,1.8,1,2.6,1.5
				c0.8,0.6,1.6,1.2,2.4,1.9c0.7,0.7,1.4,1.5,2,2.4c0.6,0.9,1.1,1.8,1.4,2.8c0.8,2,1.1,4.2,1,6.3c0,1.1-0.2,2.2-0.4,3.2
				c-0.2,1.1-0.5,2.1-0.8,3.1c0.4-1,0.7-2,1-3.1c0.2-1.1,0.4-2.1,0.5-3.2c0-0.3,0-0.5,0-0.8c0-1.9-0.2-3.9-0.9-5.7
				c-0.4-1-0.8-2-1.4-2.9c-0.6-0.9-1.2-1.8-2-2.5c-0.8-0.8-1.6-1.5-2.4-2.1c-0.9-0.6-1.8-1.1-2.7-1.6c-1.9-1-3.9-1.6-6-1.8
				c-1-0.1-2.1,0-3.1,0.1c-1,0.2-2,0.5-3,0.9c-1.3,0.6-2.5,1.3-3.6,2.3c0,0-0.1,0.1-0.1,0.1c-0.5,0.4-1,0.9-1.5,1.4
				c-0.7,0.8-1.4,1.6-2.1,2.5c-0.5,0.8-1,1.5-1.5,2.4"/>
			<path id="XMLID_55_" class="st2" d="M17.7,58.1c0.1,0.1,0.1,0.2,0.2,0.3l0-0.6C17.9,57.9,17.8,58,17.7,58.1z"/>
			<path id="XMLID_26_" class="st2" d="M38.2,32.1c-0.7-0.3-1.5-0.5-2.2-0.8c-0.9-0.3-1.8-0.5-2.7-0.7c-1.8-0.3-3.7-0.5-5.6-0.3
				c-0.1,0-0.3,0-0.4,0c-0.1,0-0.2,0-0.2,0c-0.7,0.1-1.4,0.2-2.2,0.4c-0.9,0.2-1.8,0.6-2.7,1c-0.9,0.4-1.7,1-2.4,1.6
				c-0.7,0.6-1.4,1.4-2,2.2c-0.6,0.8-1.1,1.7-1.5,2.6c-0.4,0.9-0.8,1.8-1.1,2.8c-0.1,0.5-0.3,1-0.4,1.5c-0.1,0.5-0.2,1-0.3,1.5
				c-0.1,1-0.2,2-0.2,3c0,1,0.1,2,0.3,3c0.2,1,0.5,2,0.8,2.9c0.6,1.8,1.4,3.5,2.3,5.1"/>
			<path id="XMLID_22_" class="st2" d="M38.2,32.1c-0.1,0.1-0.2,0.3-0.2,0.5l0.7-0.3C38.5,32.2,38.4,32.1,38.2,32.1z"/>
			<path id="XMLID_21_" class="st2" d="M74.3,71.1C74.3,71.1,74.3,71.1,74.3,71.1c0.4-0.2,0.8-0.3,1.3-0.5c1.1-0.5,2.2-1.1,3.3-1.9
				c1.1-0.8,2.2-1.8,3.2-3.1c1-1.2,1.8-2.7,2.3-4.3c0.5-1.6,0.7-3.3,0.6-5.1c0-0.2,0-0.4,0-0.6l-0.1-0.6l-0.1-0.6l0-0.1l0,0l0,0l0,0
				l0-0.2l-0.1-0.3c-0.1-0.8-0.3-1.6-0.5-2.5c-0.4-1.6-1-3.1-1.8-4.5c-0.7-1.4-1.7-2.6-2.7-3.6c-1-1-2.1-1.8-3.1-2.3
				c-1.1-0.6-2.1-1-3-1.2c-0.9-0.3-1.7-0.4-2.4-0.5C70.5,39,70,39,69.6,39c-0.4,0-0.6,0-0.6,0s0.8,0,2.1,0.3
				c1.3,0.3,3.2,0.9,5.1,2.1c1,0.6,1.9,1.4,2.8,2.4c0.9,1,1.7,2.1,2.4,3.5c0.7,1.3,1.2,2.8,1.6,4.3c0.2,0.8,0.4,1.5,0.5,2.3l0,0.3
				l0,0.1l0,0l0,0l0,0.1l0.1,0.6l0.1,0.6c0,0.2,0,0.4,0,0.6c0.1,1.6-0.1,3.2-0.5,4.6c-0.4,1.5-1.1,2.8-2,4c-0.9,1.2-1.9,2.2-2.9,3
				c-1,0.8-2.1,1.5-3.1,2c-2,1.1-3.9,1.8-5.1,2.2c-0.6,0.2-1.2,0.3-1.5,0.4c-0.4,0.1-0.5,0.1-0.5,0.1s0.2,0,0.6-0.1
				c0.4,0,0.9-0.1,1.5-0.3c0.7-0.1,1.5-0.3,2.4-0.6C73.1,71.6,73.7,71.4,74.3,71.1"/>
			<path id="XMLID_20_" class="st2" d="M83.6,54.3C83.6,54.3,83.6,54.3,83.6,54.3"/>
			<path id="XMLID_18_" class="st2" d="M74.3,71.1c0-0.2,0-0.3,0-0.3S74.3,70.9,74.3,71.1c-0.1,0.4-0.1,1.2-0.3,2.2
				c-0.1,0.8-0.4,1.8-0.7,2.8c-0.3,1.1-0.8,2.2-1.5,3.4c-0.7,1.2-1.5,2.3-2.6,3.4c-1.1,1-2.4,1.9-3.8,2.6c-1.4,0.7-3,1.1-4.7,1.3
				c-1.6,0.2-3.4,0.2-5.1,0.1c-0.4,0-0.9-0.1-1.3-0.1c-0.4-0.1-0.8-0.1-1.2-0.2c-0.8-0.1-1.6-0.4-2.4-0.6c-0.4-0.1-0.8-0.3-1.2-0.4
				c-0.4-0.1-0.8-0.3-1.1-0.5c-0.7-0.4-1.5-0.8-2.1-1.2c-0.3-0.2-0.7-0.5-1-0.7c-0.1-0.1-0.3-0.3-0.5-0.4c-0.2-0.1-0.3-0.3-0.4-0.4
				c-0.6-0.5-1.1-1.1-1.6-1.7c-1-1.2-1.7-2.4-2.3-3.6c-0.6-1.2-1-2.4-1.3-3.5c-0.3-1.1-0.5-2-0.6-2.9c-0.1-0.8-0.1-1.4-0.2-1.9
				s0-0.7,0-0.7s0,0.2,0,0.7c0,0.4,0,1.1,0,1.9c0,0.8,0.1,1.8,0.4,2.9c0.2,1.1,0.6,2.4,1.1,3.7c0.4,1.1,1,2.2,1.8,3.3c0,0,0,0,0,0
				c0.1,0.2,0.3,0.4,0.4,0.6c1,1.3,2.2,2.5,3.6,3.5c1.4,1,3,1.8,4.6,2.4c0.8,0.3,1.7,0.5,2.6,0.7c0.4,0.1,0.9,0.2,1.3,0.2
				c0.2,0,0.4,0.1,0.7,0.1l0.6,0.1c1.8,0.1,3.6,0.1,5.3-0.2c1.7-0.2,3.4-0.7,5-1.5c1.5-0.7,2.9-1.8,4-2.9c1.1-1.2,1.9-2.5,2.6-3.7
				c0.6-1.3,1-2.5,1.3-3.6c0.3-1.1,0.4-2.1,0.5-2.9c0.1-0.8,0.1-1.5,0.1-1.9C74.3,71.3,74.3,71.2,74.3,71.1z"/>
			<path id="XMLID_17_" class="st2" d="M43.2,25.8c0.3,0.1,0.5,0.2,0.5,0.2s-0.1-0.1-0.4-0.3c-0.1-0.1-0.2-0.1-0.3-0.2
				c-0.2-0.2-0.5-0.4-0.9-0.5c-0.3-0.2-0.7-0.4-1.2-0.6c-0.4-0.2-0.9-0.4-1.5-0.6c-0.5-0.2-1.1-0.3-1.7-0.4
				c-0.6-0.1-1.2-0.1-1.9-0.1c-0.6,0-1.3,0.1-2,0.3c-0.3,0.1-0.6,0.2-1,0.3c-0.3,0.1-0.6,0.2-0.9,0.4c-0.1,0.1-0.3,0.2-0.4,0.2
				c-0.1,0.1-0.3,0.2-0.4,0.3c-0.1,0.1-0.3,0.2-0.4,0.3c-0.1,0.1-0.3,0.2-0.4,0.3c-0.3,0.2-0.5,0.4-0.7,0.6
				c-0.2,0.2-0.4,0.4-0.6,0.7c-0.1,0.1-0.2,0.2-0.3,0.3c-0.1,0.1-0.2,0.2-0.2,0.3c-0.2,0.2-0.3,0.4-0.4,0.7
				c-0.3,0.4-0.5,0.8-0.7,1.2c-0.2,0.4-0.3,0.7-0.4,1c0,0.1-0.1,0.2-0.1,0.2c-0.1,0.4-0.2,0.6-0.2,0.6s0.2-0.2,0.5-0.7
				c0,0,0-0.1,0.1-0.1c0.1-0.2,0.4-0.5,0.6-0.8c0.2-0.3,0.5-0.7,0.8-1c0.1-0.2,0.3-0.4,0.5-0.5c0.1-0.1,0.2-0.2,0.3-0.3
				c0.1-0.1,0.2-0.2,0.3-0.3c0.2-0.2,0.4-0.4,0.6-0.5c0.2-0.2,0.4-0.4,0.7-0.5c0.1-0.1,0.2-0.2,0.4-0.2c0.1-0.1,0.2-0.1,0.4-0.2
				c0.1-0.1,0.3-0.1,0.4-0.2c0.1-0.1,0.3-0.1,0.4-0.2c0.3-0.1,0.5-0.2,0.8-0.3c0.3-0.1,0.6-0.2,0.9-0.3c0.3-0.1,0.6-0.1,0.9-0.2
				c0.3,0,0.6-0.1,0.9-0.1c0.6,0,1.2,0,1.7,0c0.6,0,1.1,0.1,1.6,0.2c0.5,0.1,1,0.2,1.5,0.3c0.9,0.2,1.6,0.5,2.2,0.7
				C43.1,25.7,43.2,25.8,43.2,25.8z"/>
		</g>
	</g>
</g>
<g id="XMLID_48_">
	<g id="XMLID_49_">
		<polygon id="XMLID_53_" class="st3" points="42.3,64.8 46.2,78.5 51.4,64.8 65.1,76.1 65.2,63.4 78.7,67.7 69.6,57.5 77.7,49.4 
			65.5,46.6 65.3,35.8 56,41.2 48.8,29 43.6,42.9 33.8,31.4 32.6,44.6 16.4,42.3 23.1,51 15,63.7 31.3,60.8 27.4,73.1 		"/>
		<path id="XMLID_50_" class="st0" d="M38.7,67.1L35,69.2c-2.5,1.4-4.9,2.9-7.4,4.3l-1,0.6l0.4-1.2l3.8-12.4l0.7,0.9
			c-1.4,0.3-2.7,0.6-4.1,0.8l-4.1,0.8c-2.7,0.5-5.4,1-8.1,1.5L13.1,65l1.2-2c1.3-2.1,2.6-4.3,4-6.4l2-3.2c0.7-1.1,1.3-2.1,2-3.2
			l0.1,1.3L15.6,43L14,40.9l2.6,0.4l16.3,2.3l-1,0.9l1.2-13.1l0.2-2.1l1.3,1.5l9.7,11.5l-1.2,0.2l5.4-13.8l0.4-1l0.5,1l3.5,6.2
			l1.8,3.1l1.8,3.1l-0.4-0.1l4.7-2.6l4.7-2.7l0.4-0.2l0,0.5c0,3.6,0.1,7.2,0.2,10.8l-0.2-0.3c2,0.5,4.1,0.9,6.1,1.3
			c2,0.5,4.1,0.9,6.1,1.3l0.9,0.2L78,49.8L70.1,58l0-1l4.6,5c1.5,1.7,3.1,3.4,4.6,5.1l2.2,2.4l-3-0.9l-3.4-1l-3.4-1.1
			c-2.3-0.7-4.5-1.4-6.8-2.1l1.1-0.9l-0.1,12.6l0,1.7l-1.3-1.1l-6.8-5.7L51,65.4l1-0.3l-2.7,6.8c-0.9,2.3-1.8,4.5-2.7,6.8l-0.5,1.2
			l-0.3-1.2L44,71.7l-0.9-3.5l-0.8-3.3L38.7,67.1z M43.5,68.2l1,3.4l2.1,6.8l-0.8,0c0.8-2.3,1.7-4.6,2.5-6.9l2.5-6.9l0.3-0.8
			l0.7,0.5l6.9,5.5l6.9,5.6l-1.2,0.7l0.1-12.6v-1.2l1,0.3c2.3,0.7,4.4,1.4,6.7,2.1l3.4,1.1l3.4,1.1l-0.8,1.5c-1.5-1.7-3-3.4-4.5-5.2
			L69.1,58l-0.5-0.5l0.5-0.5l8.2-7.9l0.2,0.9c-2-0.5-4.1-1-6.1-1.5c-2-0.5-4.1-1-6.1-1.5l-0.2-0.1l0-0.3c-0.1-3.6-0.1-7.2-0.2-10.8
			l0.4,0.3l-4.7,2.7l-4.6,2.7l-0.3,0.2l-0.2-0.3l-1.8-3l-1.8-3l-3.7-6l1-0.1l-5,14l-0.4,1.1L43,43.4l-9.9-11.3l1.5-0.5l-1.1,13.1
			l-0.1,1l-1-0.1l-16.3-2.1l0.9-1.8l6.7,8.6l0.5,0.6l-0.4,0.7c-0.7,1.1-1.3,2.1-2,3.2l-2,3.2c-1.4,2.1-2.7,4.2-4.1,6.3l-0.9-1.5
			c2.7-0.4,5.4-0.9,8.2-1.3l4.1-0.6c1.4-0.2,2.7-0.4,4.1-0.6l1.1-0.2L31.9,61l-4.1,12.3l-0.6-0.6c2.5-1.4,5-2.7,7.6-4l3.8-2l3.9-2
			L43.5,68.2z"/>
	</g>
</g>
<g id="XMLID_27_">
	<g id="XMLID_43_">
		<path id="XMLID_44_" class="st4" d="M28,60.3c0.9,3.3-0.2,6.9-6.3,8.9c-0.6,0.2-1.3,0.4-2.1,0.6c-0.1,0-0.2,0.1-0.3,0.1
			c-0.1,0-0.2,0-0.2,0c-0.9,0.1-1.4-0.1-1.9-0.5c-0.6-0.3-1.1-2-1.3-2.8c-0.1-0.3-0.1-0.5-0.1-0.5s-2.6-9.4-2.8-10.2
			c-0.7-2.6-1.6-4.1-1.9-5.2c-0.2-0.8-0.1-1.3,0.4-1.7c0.6-0.3,1-0.5,1.4-0.7c0.7-0.2,1.1-0.1,1.4,0.1c0.5-0.4,1.5-0.8,2.7-1.3
			c0.5-0.2,1.1-0.3,1.8-0.5c2.6-0.6,4.9,1.5,5.6,4.2c0.5,1.6,0.3,3.5-0.6,5C24.4,55.6,27,56.9,28,60.3z M17.5,50.8
			c-0.6,0.2-1.2,0.5-1.6,0.8l1.2,4.2c0.2,0,0.5-0.1,0.8-0.2c1.4-0.4,3.3-1.4,3-3.5C20.4,50.4,18.9,50.4,17.5,50.8z M19.6,59.6
			c-0.5,0.1-0.9,0.3-1.3,0.5l1.4,5.1c0.3-0.1,0.8-0.2,1.2-0.3c1.6-0.5,3.5-1.6,3.1-4C23.5,59,21.4,59.1,19.6,59.6z"/>
	</g>
	<g id="XMLID_39_">
		<path id="XMLID_40_" class="st4" d="M41.3,55.1c0.1,0.3,0.2,0.9,0.4,1.7c0.3,1.9,0.5,4.7-0.7,7.1c-1.4,2.9-2.8,3.8-4.9,4.2
			c-5.6,1.1-8.7-3.1-9.4-7.8c-0.9-5.2,1.2-11.2,6.4-12.2l0.3-0.1c5.6-0.9,7.5,5.4,7.9,6.6c0,0.1,0.1,0.2,0.1,0.2
			C41.3,54.9,41.3,55,41.3,55.1z M37.8,57.1c-0.4-2.3-1.8-4.3-3.9-3.9c-2.4,0.5-3.2,3.2-2.8,5.7c0.4,2.4,1.9,4.5,4.1,4.1
			C37.4,62.6,38.2,59.7,37.8,57.1z"/>
	</g>
	<g id="XMLID_36_">
		<path id="XMLID_37_" class="st4" d="M86.1,56.5c0,0.1,0,0.1,0,0.2c0,0.1,0,0.1,0,0.2c0,0.3-0.1,1-0.5,1.1
			c-0.2,0.2-0.6,0.4-1.3,0.3c-0.2,0-0.5,0-0.8-0.1c-0.9-0.2-1.2-0.5-1.6-1c-0.5-0.5-0.5-2.2-0.4-3c0-0.3,0-0.5,0-0.5s0.1-2.8,0.2-5
			c-0.1,0.4-1.7,3.3-2.5,4.3l-0.1,0.1c-0.4,0.5-0.6,0.8-1.4,0.8c-0.9,0-1.1-0.6-1.3-1l-2.3-4.5c-0.1,2.3,0.1,5.5,0.2,7.9
			c0,0.3-0.1,1-0.5,1.1c-0.2,0.2-0.6,0.4-1.3,0.3c-0.2,0-0.5,0-0.8-0.1c-0.9-0.2-1.2-0.5-1.6-1c-0.5-0.5-0.5-2.1-0.5-2.9
			c0-0.3,0-0.4,0-0.4s0.3-8.8,0.3-9.6c0.1-1.9-0.2-3.3-0.3-4.2c0-0.1,0-0.2,0-0.3c0-0.1,0-0.1,0-0.2l0-0.3c0-0.7,0.2-1.2,0.9-1.3
			c0.7-0.1,1.2-0.1,1.7-0.1l0.2,0c0.3,0,0.6,0.1,0.9,0.2c1.1,0.5,2.1,3.1,2.1,3.1s1,2.6,2.3,5.6c0.2-0.4,2-4.8,2.3-5.3
			c0,0,1.1-2.8,2.1-3.2c0.5-0.1,0.9-0.1,1.3-0.1c0.9,0,1.7,0.4,2,0.7c0.6,0.6,0.6,2.3,0.6,3.2c0,0.4,0,0.7,0,0.7s0,1-0.1,2.5
			c-0.1,1.8-0.1,4.2-0.1,6C85.9,53.8,86,55.5,86.1,56.5z"/>
	</g>
	<g id="XMLID_32_">
		<path id="XMLID_33_" class="st4" d="M54,47.5c0.2,0.2,0.5,0.8,0.9,1.5c0.8,1.7,1.9,4.3,1.4,7c-0.5,3.2-1.5,4.5-3.4,5.6
			c-5,2.9-9.1,0-11.2-4.2c-2.3-4.6-2.2-11,2.5-13.7l0.2-0.1c5.1-2.7,8.7,2.6,9.4,3.6c0.1,0.1,0.1,0.1,0.1,0.2
			C53.9,47.4,54,47.4,54,47.5z M51.2,50.6c-1-2.1-2.9-3.5-4.9-2.4c-2.2,1.3-2.1,4.1-1,6.3c1.1,2.1,3.2,3.6,5.1,2.5
			C52.5,55.9,52.4,52.9,51.2,50.6z"/>
	</g>
	<g id="XMLID_28_">
		<path id="XMLID_29_" class="st4" d="M70.1,50.9c0,0.3,0.1,0.9,0.1,1.8c0,1.9-0.2,4.7-1.7,6.9c-1.8,2.6-3.3,3.2-5.4,3.3
			c-5.6,0.1-8.1-4.6-8.1-9.3c-0.1-5.3,2.8-10.8,8.1-10.9l0.3,0c5.7,0.1,6.6,6.7,6.8,7.9c0,0.1,0,0.2,0,0.2
			C70.1,50.8,70.1,50.8,70.1,50.9z M66.3,52.3c0-2.3-1.1-4.6-3.3-4.5c-2.5,0.1-3.7,2.6-3.6,5.1c0,2.4,1.2,4.8,3.5,4.8
			C65.1,57.6,66.3,54.9,66.3,52.3z"/>
	</g>
</g>
<g id="XMLID_111_">
	<g id="XMLID_19_">
		<g id="XMLID_128_">
			<path id="XMLID_70_" class="st0" d="M2.2,8.4C2.2,8.4,2.2,8.5,2.2,8.4L2.2,8.4C2.2,8.4,2.2,8.4,2.2,8.4z"/>
			<path id="XMLID_69_" class="st0" d="M3.9,3.2c0,0.1,0,0.1,0,0.1S3.9,3.3,3.9,3.2C4,3.2,4,3.2,3.9,3.2z"/>
			<path id="XMLID_68_" class="st1" d="M4.1,3.2c0.4,0,0.7,0,1.1,0.1c0.2,0,0.3,0.1,0.5,0.1c0.1,0,0.3,0.1,0.4,0.1
				c0.1-0.2,0.2-0.3,0.3-0.4c0.1-0.2,0.2-0.3,0.4-0.5C6.8,2.5,6.9,2.4,7,2.3c0,0,0,0-0.1,0c-0.1,0-0.2-0.1-0.4-0.1
				c-0.1,0-0.2,0-0.3-0.1c-0.1,0-0.2,0-0.3,0c-0.1,0-0.2,0-0.3,0c-0.1,0-0.1,0-0.2,0c-0.1,0-0.1,0-0.2,0c-0.1,0-0.1,0-0.2,0
				C5.1,2.2,5,2.2,5,2.2c0,0,0,0-0.1,0c0,0,0,0-0.1,0c0,0,0,0-0.1,0c0,0,0,0-0.1,0c0,0-0.1,0.1-0.1,0.1c0,0-0.1,0.1-0.1,0.1
				c0,0,0,0-0.1,0.1c0,0,0,0,0,0.1c0,0-0.1,0.1-0.1,0.1C4.2,2.9,4.2,3,4.1,3C4.1,3.1,4,3.1,4.1,3.2C4,3.2,4,3.2,4.1,3.2
				C4,3.2,4,3.2,4.1,3.2z"/>
			<path id="XMLID_67_" class="st0" d="M6,3.6l0.1-0.1C6.1,3.5,6.1,3.5,6,3.6C6,3.5,6,3.6,6,3.6z"/>
			<path id="XMLID_66_" class="st0" d="M6.7,12.7C6.7,12.7,6.7,12.7,6.7,12.7C6.7,12.7,6.8,12.7,6.7,12.7
				C6.8,12.7,6.7,12.7,6.7,12.7z"/>
			<path id="XMLID_65_" class="st0" d="M6,1.9c-0.1,0-0.2,0-0.4,0c-0.1,0-0.2,0-0.4,0.1c-0.1,0-0.1,0-0.2,0.1C5,2,5,2,4.9,2
				c0,0-0.1,0-0.1,0c0,0-0.1,0-0.1,0.1c0,0-0.1,0-0.1,0.1c0,0,0,0-0.1,0.1c0,0-0.1,0.1-0.1,0.1c0,0-0.1,0.1-0.1,0.1c0,0,0,0-0.1,0.1
				c0,0,0,0,0,0.1c0,0-0.1,0.1-0.1,0.1C4.1,2.8,4.1,2.9,4,3C4,3,4,3.1,4,3.2c0,0,0,0,0,0c0,0,0,0,0,0c0,0,0,0,0,0
				c0,0,0.1-0.1,0.1-0.2c0-0.1,0.1-0.1,0.2-0.2c0,0,0.1-0.1,0.1-0.1c0,0,0,0,0-0.1c0,0,0,0,0.1-0.1c0,0,0.1-0.1,0.1-0.1
				c0,0,0.1-0.1,0.1-0.1c0,0,0,0,0.1,0c0,0,0,0,0.1,0c0,0,0,0,0.1,0c0,0,0,0,0.1,0c0,0,0.1,0,0.2-0.1c0.1,0,0.1,0,0.2,0
				c0.1,0,0.1,0,0.2,0c0.1,0,0.1,0,0.2,0c0.1,0,0.2,0,0.3,0c0.1,0,0.2,0,0.3,0c0.1,0,0.2,0,0.3,0.1c0.2,0,0.3,0.1,0.4,0.1
				c0,0,0,0,0.1,0c0,0,0,0,0,0c0,0,0,0-0.1,0c0,0-0.1-0.1-0.2-0.1c-0.1,0-0.1-0.1-0.2-0.1S6.4,2,6.3,1.9C6.2,1.9,6.1,1.9,6,1.9z"/>
			<path id="XMLID_64_" class="st0" d="M7,2.3C7,2.3,7,2.3,7,2.3C7.1,2.4,7.1,2.4,7,2.3C7.1,2.4,7.1,2.4,7,2.3z"/>
			<path id="XMLID_63_" class="st0" d="M11.7,4.8c0-0.4,0-0.7-0.2-1.1c-0.1-0.2-0.2-0.4-0.3-0.6c-0.1-0.2-0.2-0.3-0.4-0.5
				c-0.1-0.1-0.3-0.3-0.5-0.4C10.3,2.2,10.2,2.1,10,2C9.6,1.8,9.2,1.7,8.9,1.7c-0.2,0-0.4,0-0.6,0c-0.2,0-0.4,0.1-0.6,0.2
				C7.5,2,7.2,2.1,7,2.3c0.1,0,0.1,0.1,0.1,0.1s0,0-0.1,0C6.9,2.4,6.8,2.5,6.7,2.6C6.6,2.7,6.5,2.9,6.3,3.1C6.2,3.2,6.1,3.4,6.1,3.5
				c0,0,0.1,0,0.1,0L6,3.6c0,0,0-0.1,0-0.1C5.9,3.5,5.8,3.4,5.6,3.4C5.5,3.3,5.3,3.3,5.1,3.2C4.8,3.2,4.4,3.2,4.1,3.2
				c0,0-0.1,0-0.1,0C3.9,3.3,3.9,3.3,3.9,3.3s0,0,0-0.1c-0.1,0-0.3,0-0.4,0.1C3.4,3.3,3.2,3.4,3,3.5C2.9,3.6,2.7,3.7,2.6,3.8
				C2.4,3.9,2.3,4,2.2,4.2C2.1,4.3,2,4.5,1.9,4.7S1.8,5,1.7,5.2c0,0.1-0.1,0.2-0.1,0.3c0,0.1,0,0.2-0.1,0.3c0,0.2,0,0.4,0,0.6
				c0,0.2,0,0.4,0.1,0.6c0,0.2,0.1,0.4,0.1,0.6c0.1,0.3,0.3,0.7,0.4,1c0,0,0,0,0-0.1l0,0.1c0,0,0,0,0-0.1C2.1,8.6,2,8.7,1.9,8.9
				C1.8,9.1,1.8,9.3,1.7,9.5c-0.1,0.4-0.2,0.8-0.1,1.2c0,0.4,0.2,0.8,0.4,1.2C2,12,2.1,12.2,2.3,12.3c0.1,0.1,0.3,0.3,0.4,0.4
				C2.8,12.9,3,13,3.2,13.1c0.2,0.1,0.3,0.2,0.5,0.3c0.4,0.1,0.7,0.2,1.1,0.2c0.4,0,0.7-0.1,1.1-0.3C6,13.2,6.2,13.1,6.3,13
				c0.1-0.1,0.3-0.2,0.4-0.3c0,0,0,0,0,0c-0.1,0.1-0.3,0.2-0.4,0.3c-0.2,0.1-0.3,0.2-0.5,0.3c-0.3,0.1-0.7,0.2-1.1,0.2
				c-0.2,0-0.4,0-0.5-0.1c-0.2,0-0.4-0.1-0.5-0.2c-0.2-0.1-0.3-0.2-0.5-0.3c-0.2-0.1-0.3-0.2-0.4-0.3c-0.1-0.1-0.3-0.3-0.4-0.4
				c-0.1-0.1-0.2-0.3-0.3-0.5c-0.2-0.3-0.3-0.7-0.3-1.1c0-0.2,0-0.4,0-0.6c0-0.2,0.1-0.4,0.1-0.6C2,9.3,2,9.2,2.1,9
				c0.1-0.2,0.2-0.3,0.3-0.5l0-0.1l0-0.1C2.2,8.1,2.1,7.7,2,7.4C1.9,7.2,1.8,7,1.8,6.9c0-0.2-0.1-0.4-0.1-0.5c0-0.2,0-0.4,0-0.5
				c0-0.1,0-0.2,0-0.3c0-0.1,0-0.2,0.1-0.3C2,5.1,2,4.9,2.1,4.8c0.1-0.2,0.2-0.3,0.3-0.4C2.5,4.2,2.6,4.1,2.7,4
				C2.8,3.9,3,3.8,3.1,3.7c0.1-0.1,0.3-0.1,0.5-0.2c0.2,0,0.3-0.1,0.5-0.1c0.3,0,0.7,0,1,0.1c0.2,0,0.3,0.1,0.5,0.1
				c0.2,0,0.3,0.1,0.5,0.2l0.1,0l0-0.1c0.1-0.2,0.2-0.3,0.3-0.5C6.6,3,6.7,2.9,6.9,2.7c0.3-0.3,0.6-0.5,0.9-0.7
				C7.9,2,8.1,1.9,8.3,1.9c0.2,0,0.4,0,0.6,0c0.4,0,0.7,0.1,1.1,0.3c0.2,0.1,0.3,0.2,0.5,0.3c0.2,0.1,0.3,0.2,0.4,0.4
				c0.1,0.1,0.3,0.3,0.4,0.4c0.1,0.2,0.2,0.3,0.3,0.5c0.1,0.4,0.2,0.8,0.2,1.2c0,0.2,0,0.4-0.1,0.6c0,0.2-0.1,0.4-0.2,0.6
				c0.1-0.2,0.1-0.4,0.2-0.6c0-0.2,0.1-0.4,0.1-0.6C11.7,4.9,11.7,4.9,11.7,4.8z"/>
			<path id="XMLID_62_" class="st1" d="M12.3,4.9c-0.2-0.1-0.4-0.1-0.4-0.1l-0.1,0c0,0,0,0.1,0,0.1c0,0.2,0,0.4-0.1,0.6
				c0,0.2-0.1,0.4-0.2,0.6c0.1-0.2,0.1-0.4,0.2-0.6c0-0.2,0.1-0.4,0.1-0.6c0-0.4,0-0.8-0.2-1.2c-0.1-0.2-0.2-0.4-0.3-0.5
				c-0.1-0.2-0.2-0.3-0.4-0.4c-0.1-0.1-0.3-0.3-0.4-0.4c-0.2-0.1-0.3-0.2-0.5-0.3C9.6,2,9.2,1.9,8.8,1.8c-0.2,0-0.4,0-0.6,0
				C8.1,1.9,7.9,2,7.8,2.1C7.4,2.2,7.1,2.5,6.9,2.7C6.7,2.9,6.6,3,6.5,3.2C6.4,3.4,6.3,3.5,6.2,3.7l0,0.1l-0.1,0
				C5.9,3.7,5.7,3.6,5.6,3.6c-0.2,0-0.3-0.1-0.5-0.1c-0.3-0.1-0.7-0.1-1-0.1c-0.2,0-0.3,0-0.5,0.1c-0.2,0-0.3,0.1-0.5,0.2
				C3,3.8,2.8,3.9,2.7,4C2.6,4.1,2.5,4.2,2.4,4.3C2.3,4.5,2.2,4.6,2.1,4.8C2,4.9,2,5.1,1.9,5.3c0,0.1,0,0.2-0.1,0.3
				c0,0.1,0,0.2,0,0.3c0,0.2,0,0.4,0,0.5c0,0.2,0,0.4,0.1,0.5C1.8,7,1.9,7.2,2,7.4c0.1,0.3,0.3,0.7,0.4,1l0,0.1l0,0.1
				C2.3,8.6,2.2,8.8,2.1,9C2,9.2,2,9.3,1.9,9.5c-0.1,0.2-0.1,0.4-0.1,0.6c0,0.2,0,0.4,0,0.6c0,0.4,0.1,0.8,0.3,1.1
				c0.1,0.2,0.2,0.3,0.3,0.5c0.1,0.1,0.3,0.3,0.4,0.4c0.1,0.1,0.3,0.2,0.4,0.3c0.2,0.1,0.3,0.2,0.5,0.3c0.2,0.1,0.3,0.1,0.5,0.2
				c0.2,0,0.4,0.1,0.5,0.1c0.4,0,0.7-0.1,1.1-0.2C6,13.2,6.2,13.1,6.3,13c0.1-0.1,0.3-0.2,0.4-0.3c-0.1-0.2-0.3-0.4-0.3-0.6
				c-0.1-0.2-0.2-0.5-0.2-0.7c0-0.2-0.1-0.4-0.1-0.6c0-0.2,0-0.3,0-0.4c0-0.1,0-0.1,0-0.1s0,0,0,0.1s0,0.2,0,0.4
				c0,0.2,0.1,0.3,0.1,0.5c0.1,0.2,0.1,0.4,0.2,0.7c0.1,0.2,0.3,0.5,0.4,0.7C7,12.8,7.1,12.9,7.2,13c0,0,0.1,0.1,0.1,0.1
				c0,0,0.1,0,0.1,0.1c0.1,0,0.1,0.1,0.2,0.1c0.1,0.1,0.3,0.2,0.4,0.2c0.1,0,0.1,0.1,0.2,0.1c0.1,0,0.1,0.1,0.2,0.1
				c0.2,0,0.3,0.1,0.5,0.1c0.1,0,0.2,0,0.2,0c0.1,0,0.2,0,0.2,0c0.3,0,0.6,0,1,0c0.3,0,0.6-0.1,0.9-0.2c0.3-0.1,0.5-0.3,0.7-0.5
				c0.2-0.2,0.4-0.4,0.5-0.6c0.1-0.2,0.2-0.4,0.3-0.6c0.1-0.2,0.1-0.4,0.1-0.5c0-0.2,0-0.3,0.1-0.4c-0.1,0-0.2,0.1-0.3,0.1
				c-0.2,0.1-0.3,0.1-0.4,0.1c-0.1,0-0.2,0-0.3,0c-0.1,0-0.1,0-0.1,0s0,0,0.1,0c0.1,0,0.2,0,0.3-0.1c0.2-0.1,0.6-0.2,1-0.4
				c0.2-0.1,0.4-0.2,0.6-0.4c0.2-0.2,0.4-0.3,0.5-0.6s0.3-0.5,0.4-0.8c0.1-0.3,0.1-0.6,0.1-0.9c0,0,0-0.1,0-0.1l0-0.1l0-0.1l0,0l0,0
				l0,0l0,0l0-0.1c0-0.1-0.1-0.3-0.1-0.4c-0.1-0.3-0.2-0.6-0.3-0.8c-0.1-0.2-0.3-0.5-0.5-0.7c-0.2-0.2-0.4-0.3-0.5-0.5
				C12.9,5,12.5,4.9,12.3,4.9z"/>
			<path id="XMLID_60_" class="st0" d="M12.5,12.5c0.1-0.2,0.2-0.5,0.2-0.7c0.1-0.2,0.1-0.4,0.1-0.6c0-0.2,0-0.3,0-0.4
				c0,0,0,0,0-0.1c0,0,0,0,0,0c0,0.1,0,0.2-0.1,0.4c0,0.1-0.1,0.3-0.1,0.5c-0.1,0.2-0.2,0.4-0.3,0.6c-0.1,0.2-0.3,0.4-0.5,0.6
				c-0.2,0.2-0.4,0.4-0.7,0.5c-0.3,0.1-0.6,0.2-0.9,0.2c-0.3,0-0.6,0-1,0c-0.1,0-0.2,0-0.2,0c-0.1,0-0.2,0-0.2,0
				c-0.2,0-0.3-0.1-0.5-0.1c-0.1,0-0.1-0.1-0.2-0.1c-0.1,0-0.1-0.1-0.2-0.1c-0.1-0.1-0.3-0.1-0.4-0.2c-0.1,0-0.1-0.1-0.2-0.1
				c0,0-0.1,0-0.1-0.1c0,0-0.1,0-0.1-0.1c-0.1-0.1-0.2-0.2-0.3-0.3c-0.2-0.2-0.3-0.5-0.4-0.7c-0.1-0.2-0.2-0.5-0.2-0.7
				c-0.1-0.2-0.1-0.4-0.1-0.5c0-0.2,0-0.3,0-0.4s0-0.1,0-0.1s0,0,0,0.1c0,0.1,0,0.2,0,0.4c0,0.2,0,0.3,0.1,0.6
				c0,0.2,0.1,0.4,0.2,0.7c0.1,0.2,0.2,0.4,0.3,0.6c0,0,0,0,0.1-0.1c0,0,0,0-0.1,0.1c0,0,0.1,0.1,0.1,0.1C7,13,7.2,13.3,7.5,13.5
				c0.3,0.2,0.6,0.3,0.9,0.5C8.5,14,8.7,14,8.8,14.1c0.1,0,0.2,0,0.3,0c0,0,0.1,0,0.1,0l0.1,0c0.3,0,0.7,0,1,0
				c0.3,0,0.6-0.1,0.9-0.3c0.3-0.1,0.5-0.3,0.8-0.6C12.2,13,12.4,12.8,12.5,12.5z"/>
			<path id="XMLID_59_" class="st0" d="M12.9,10.9C12.9,10.9,12.9,10.9,12.9,10.9C12.9,10.8,12.9,10.8,12.9,10.9
				C12.9,10.8,12.9,10.9,12.9,10.9z"/>
			<path id="XMLID_58_" class="st0" d="M12.7,4.9c-0.2-0.1-0.3-0.1-0.5-0.1c-0.1,0-0.2,0-0.3,0c-0.1,0-0.1,0-0.1,0s0.1,0,0.4,0.1
				c0.2,0.1,0.6,0.2,1,0.4c0.2,0.1,0.4,0.3,0.5,0.5c0.2,0.2,0.3,0.4,0.5,0.7c0.1,0.2,0.2,0.5,0.3,0.8c0,0.1,0.1,0.3,0.1,0.4l0,0.1
				l0,0l0,0l0,0l0,0l0,0.1l0,0.1c0,0,0,0.1,0,0.1c0,0.3,0,0.6-0.1,0.9c-0.1,0.3-0.2,0.5-0.4,0.8s-0.4,0.4-0.5,0.6
				c-0.2,0.2-0.4,0.3-0.6,0.4c-0.4,0.2-0.7,0.3-1,0.4c-0.1,0-0.2,0.1-0.3,0.1c-0.1,0-0.1,0-0.1,0s0,0,0.1,0c0.1,0,0.2,0,0.3,0
				c0.1,0,0.3-0.1,0.4-0.1c0.1,0,0.2-0.1,0.3-0.1c0,0,0-0.1,0-0.1s0,0,0,0.1c0.1,0,0.2-0.1,0.2-0.1c0.2-0.1,0.4-0.2,0.6-0.4
				c0.2-0.2,0.4-0.3,0.6-0.6c0.2-0.2,0.3-0.5,0.4-0.8c0.1-0.3,0.1-0.6,0.1-1c0,0,0-0.1,0-0.1l0-0.1l0-0.1l0,0l0,0l0,0l0,0l0,0l0-0.1
				c0-0.2-0.1-0.3-0.1-0.5c-0.1-0.3-0.2-0.6-0.3-0.9c-0.1-0.3-0.3-0.5-0.5-0.7c-0.2-0.2-0.4-0.3-0.6-0.4C13.1,5.1,12.9,5,12.7,4.9z"
				/>
		</g>
		<g id="XMLID_119_">
			<path id="XMLID_83_" class="st2" d="M2.2,8.4C2.1,8.6,2,8.7,1.9,8.9C1.8,9.1,1.8,9.3,1.7,9.5c-0.1,0.4-0.2,0.8-0.1,1.2
				c0,0.4,0.2,0.8,0.4,1.2C2,12,2.1,12.2,2.3,12.3c0.1,0.1,0.3,0.3,0.4,0.4C2.8,12.9,3,13,3.2,13.1c0.2,0.1,0.3,0.2,0.5,0.3
				c0.4,0.1,0.7,0.2,1.1,0.2c0.4,0,0.7-0.1,1.1-0.3C6,13.2,6.2,13.1,6.3,13c0.1-0.1,0.3-0.2,0.4-0.3c0,0,0,0,0.1-0.1
				c0,0,0,0-0.1,0.1c-0.1,0.1-0.3,0.2-0.4,0.3c-0.2,0.1-0.3,0.2-0.5,0.3c-0.3,0.1-0.7,0.2-1.1,0.2c-0.2,0-0.4,0-0.5-0.1
				c-0.2,0-0.4-0.1-0.5-0.2c-0.2-0.1-0.3-0.2-0.5-0.3c-0.2-0.1-0.3-0.2-0.4-0.3c-0.1-0.1-0.3-0.3-0.4-0.4c-0.1-0.1-0.2-0.3-0.3-0.5
				c-0.2-0.3-0.3-0.7-0.3-1.1c0-0.2,0-0.4,0-0.6c0-0.2,0.1-0.4,0.1-0.6C2,9.3,2,9.2,2.1,9c0.1-0.2,0.2-0.3,0.3-0.5l0-0.1l0-0.1
				C2.2,8.1,2.1,7.7,2,7.4C1.9,7.2,1.8,7,1.8,6.9c0-0.2-0.1-0.4-0.1-0.5c0-0.2,0-0.4,0-0.5c0-0.1,0-0.2,0-0.3c0-0.1,0-0.2,0.1-0.3
				C2,5.1,2,4.9,2.1,4.8c0.1-0.2,0.2-0.3,0.3-0.4C2.5,4.2,2.6,4.1,2.7,4C2.8,3.9,3,3.8,3.1,3.7c0.1-0.1,0.3-0.1,0.5-0.2
				c0.2,0,0.3-0.1,0.5-0.1c0.3,0,0.7,0,1,0.1c0.2,0,0.3,0.1,0.5,0.1c0.2,0,0.3,0.1,0.5,0.2l0.1,0l0-0.1c0.1-0.2,0.2-0.3,0.3-0.5
				C6.6,3,6.7,2.9,6.9,2.7c0.3-0.3,0.6-0.5,0.9-0.7C7.9,2,8.1,1.9,8.3,1.9c0.2,0,0.4,0,0.6,0c0.4,0,0.7,0.1,1.1,0.3
				c0.2,0.1,0.3,0.2,0.5,0.3c0.2,0.1,0.3,0.2,0.4,0.4c0.1,0.1,0.3,0.3,0.4,0.4c0.1,0.2,0.2,0.3,0.3,0.5c0.1,0.4,0.2,0.8,0.2,1.2
				c0,0.2,0,0.4-0.1,0.6c0,0.2-0.1,0.4-0.2,0.6c0.1-0.2,0.1-0.4,0.2-0.6c0-0.2,0.1-0.4,0.1-0.6c0,0,0-0.1,0-0.1c0-0.4,0-0.7-0.2-1.1
				c-0.1-0.2-0.2-0.4-0.3-0.6c-0.1-0.2-0.2-0.3-0.4-0.5c-0.1-0.1-0.3-0.3-0.5-0.4C10.3,2.2,10.2,2.1,10,2C9.6,1.8,9.2,1.7,8.9,1.7
				c-0.2,0-0.4,0-0.6,0c-0.2,0-0.4,0.1-0.6,0.2C7.5,2,7.2,2.1,7,2.3c0,0,0,0,0,0C6.9,2.4,6.8,2.5,6.7,2.6C6.6,2.7,6.5,2.9,6.3,3.1
				C6.2,3.2,6.1,3.4,6.1,3.5"/>
			<path id="XMLID_79_" class="st2" d="M2.2,8.4C2.2,8.4,2.2,8.5,2.2,8.4L2.2,8.4C2.2,8.4,2.2,8.4,2.2,8.4z"/>
			<path id="XMLID_78_" class="st2" d="M6.1,3.5C5.9,3.5,5.8,3.4,5.6,3.4C5.5,3.3,5.3,3.3,5.1,3.2C4.8,3.2,4.4,3.2,4.1,3.2
				c0,0-0.1,0-0.1,0c0,0,0,0,0,0c-0.1,0-0.3,0-0.4,0.1C3.4,3.3,3.2,3.4,3,3.5C2.9,3.6,2.7,3.7,2.6,3.8C2.4,3.9,2.3,4,2.2,4.2
				C2.1,4.3,2,4.5,1.9,4.7S1.8,5,1.7,5.2c0,0.1-0.1,0.2-0.1,0.3c0,0.1,0,0.2-0.1,0.3c0,0.2,0,0.4,0,0.6c0,0.2,0,0.4,0.1,0.6
				c0,0.2,0.1,0.4,0.1,0.6c0.1,0.3,0.3,0.7,0.4,1"/>
			<path id="XMLID_77_" class="st2" d="M6.1,3.5C6,3.5,6,3.6,6.1,3.5L6.1,3.5C6.1,3.5,6.1,3.5,6.1,3.5z"/>
			<path id="XMLID_76_" class="st2" d="M12.9,10.9C12.9,10.9,12.9,10.9,12.9,10.9c0.1,0,0.2-0.1,0.2-0.1c0.2-0.1,0.4-0.2,0.6-0.4
				c0.2-0.2,0.4-0.3,0.6-0.6c0.2-0.2,0.3-0.5,0.4-0.8c0.1-0.3,0.1-0.6,0.1-1c0,0,0-0.1,0-0.1l0-0.1l0-0.1l0,0l0,0l0,0l0,0l0,0l0-0.1
				c0-0.2-0.1-0.3-0.1-0.5c-0.1-0.3-0.2-0.6-0.3-0.9c-0.1-0.3-0.3-0.5-0.5-0.7c-0.2-0.2-0.4-0.3-0.6-0.4c-0.2-0.1-0.4-0.2-0.6-0.2
				c-0.2-0.1-0.3-0.1-0.5-0.1c-0.1,0-0.2,0-0.3,0c-0.1,0-0.1,0-0.1,0s0.1,0,0.4,0.1c0.2,0.1,0.6,0.2,1,0.4c0.2,0.1,0.4,0.3,0.5,0.5
				c0.2,0.2,0.3,0.4,0.5,0.7c0.1,0.2,0.2,0.5,0.3,0.8c0,0.1,0.1,0.3,0.1,0.4l0,0.1l0,0l0,0l0,0l0,0l0,0.1l0,0.1c0,0,0,0.1,0,0.1
				c0,0.3,0,0.6-0.1,0.9c-0.1,0.3-0.2,0.5-0.4,0.8s-0.4,0.4-0.5,0.6c-0.2,0.2-0.4,0.3-0.6,0.4c-0.4,0.2-0.7,0.3-1,0.4
				c-0.1,0-0.2,0.1-0.3,0.1c-0.1,0-0.1,0-0.1,0s0,0,0.1,0c0.1,0,0.2,0,0.3,0c0.1,0,0.3-0.1,0.4-0.1C12.6,11,12.7,10.9,12.9,10.9"/>
			<line id="XMLID_75_" class="st2" x1="14.6" y1="7.7" x2="14.6" y2="7.7"/>
			<path id="XMLID_72_" class="st2" d="M12.9,10.9C12.9,10.8,12.9,10.8,12.9,10.9C12.9,10.8,12.9,10.9,12.9,10.9
				c0,0.1,0,0.2-0.1,0.4c0,0.1-0.1,0.3-0.1,0.5c-0.1,0.2-0.2,0.4-0.3,0.6c-0.1,0.2-0.3,0.4-0.5,0.6c-0.2,0.2-0.4,0.4-0.7,0.5
				c-0.3,0.1-0.6,0.2-0.9,0.2c-0.3,0-0.6,0-1,0c-0.1,0-0.2,0-0.2,0c-0.1,0-0.2,0-0.2,0c-0.2,0-0.3-0.1-0.5-0.1
				c-0.1,0-0.1-0.1-0.2-0.1c-0.1,0-0.1-0.1-0.2-0.1c-0.1-0.1-0.3-0.1-0.4-0.2c-0.1,0-0.1-0.1-0.2-0.1c0,0-0.1,0-0.1-0.1
				c0,0-0.1,0-0.1-0.1c-0.1-0.1-0.2-0.2-0.3-0.3c-0.2-0.2-0.3-0.5-0.4-0.7c-0.1-0.2-0.2-0.5-0.2-0.7c-0.1-0.2-0.1-0.4-0.1-0.5
				c0-0.2,0-0.3,0-0.4s0-0.1,0-0.1s0,0,0,0.1c0,0.1,0,0.2,0,0.4c0,0.2,0,0.3,0.1,0.6c0,0.2,0.1,0.4,0.2,0.7c0.1,0.2,0.2,0.4,0.3,0.6
				c0,0,0,0,0,0c0,0,0.1,0.1,0.1,0.1C7,13,7.2,13.3,7.5,13.5c0.3,0.2,0.6,0.3,0.9,0.5C8.5,14,8.7,14,8.8,14.1c0.1,0,0.2,0,0.3,0
				c0,0,0.1,0,0.1,0l0.1,0c0.3,0,0.7,0,1,0c0.3,0,0.6-0.1,0.9-0.3c0.3-0.1,0.5-0.3,0.8-0.6c0.2-0.2,0.4-0.5,0.5-0.7
				c0.1-0.2,0.2-0.5,0.2-0.7c0.1-0.2,0.1-0.4,0.1-0.6C12.9,11.2,12.9,11,12.9,10.9C12.9,10.9,12.9,10.9,12.9,10.9z"/>
			<path id="XMLID_71_" class="st2" d="M7,2.3c0.1,0,0.1,0,0.1,0S7.1,2.4,7,2.3C7,2.3,7,2.3,7,2.3C6.9,2.2,6.9,2.2,6.8,2.2
				c-0.1,0-0.1-0.1-0.2-0.1S6.4,2,6.3,1.9C6.2,1.9,6.1,1.9,6,1.9c-0.1,0-0.2,0-0.4,0c-0.1,0-0.2,0-0.4,0.1c-0.1,0-0.1,0-0.2,0.1
				C5,2,5,2,4.9,2c0,0-0.1,0-0.1,0c0,0-0.1,0-0.1,0.1c0,0-0.1,0-0.1,0.1c0,0,0,0-0.1,0.1c0,0-0.1,0.1-0.1,0.1c0,0-0.1,0.1-0.1,0.1
				c0,0,0,0-0.1,0.1c0,0,0,0,0,0.1c0,0-0.1,0.1-0.1,0.1C4.1,2.8,4.1,2.9,4,3C4,3,4,3.1,4,3.2c0,0,0,0,0,0c0,0.1,0,0.1,0,0.1
				s0,0,0.1-0.1c0,0,0,0,0,0c0,0,0.1-0.1,0.1-0.2c0-0.1,0.1-0.1,0.2-0.2c0,0,0.1-0.1,0.1-0.1c0,0,0,0,0-0.1c0,0,0,0,0.1-0.1
				c0,0,0.1-0.1,0.1-0.1c0,0,0.1-0.1,0.1-0.1c0,0,0,0,0.1,0c0,0,0,0,0.1,0c0,0,0,0,0.1,0c0,0,0,0,0.1,0c0,0,0.1,0,0.2-0.1
				c0.1,0,0.1,0,0.2,0c0.1,0,0.1,0,0.2,0c0.1,0,0.1,0,0.2,0c0.1,0,0.2,0,0.3,0c0.1,0,0.2,0,0.3,0c0.1,0,0.2,0,0.3,0.1
				C6.7,2.2,6.8,2.3,7,2.3C7,2.3,7,2.3,7,2.3z"/>
		</g>
	</g>
</g>
<g id="XMLID_105_">
	<g id="XMLID_106_">
		<polygon id="XMLID_110_" class="st3" points="6.8,9.7 7.6,12.3 8.5,9.7 11.1,11.8 11.1,9.4 13.7,10.3 12,8.3 13.5,6.8 11.2,6.3 
			11.2,4.2 9.4,5.2 8,2.9 7.1,5.6 5.2,3.4 5,5.9 1.9,5.5 3.2,7.1 1.7,9.5 4.8,8.9 4,11.3 		"/>
		<path id="XMLID_107_" class="st0" d="M6.1,10.1l-0.7,0.4C5,10.8,4.5,11.1,4,11.4l-0.2,0.1l0.1-0.2l0.7-2.3l0.1,0.2
			C4.5,9.1,4.3,9.2,4,9.2L3.2,9.4c-0.5,0.1-1,0.2-1.5,0.3L1.3,9.7l0.2-0.4C1.8,9,2,8.6,2.3,8.2l0.4-0.6C2.8,7.4,2.9,7.2,3,7l0,0.2
			L1.8,5.6L1.5,5.2L2,5.3L5,5.7L4.8,5.9l0.2-2.5l0-0.4l0.2,0.3l1.8,2.2l-0.2,0l1-2.6L8,2.7l0.1,0.2L8.8,4l0.3,0.6l0.3,0.6l-0.1,0
			l0.9-0.5l0.9-0.5l0.1,0l0,0.1c0,0.7,0,1.4,0,2l0-0.1c0.4,0.1,0.8,0.2,1.2,0.3c0.4,0.1,0.8,0.2,1.2,0.2l0.2,0l-0.1,0.1l-1.5,1.6
			l0-0.2l0.9,1c0.3,0.3,0.6,0.6,0.9,1l0.4,0.5l-0.6-0.2L13,10.2L12.4,10c-0.4-0.1-0.9-0.3-1.3-0.4l0.2-0.2l0,2.4l0,0.3L11,12
			l-1.3-1.1L8.5,9.8l0.2-0.1L8.2,11c-0.2,0.4-0.3,0.9-0.5,1.3l-0.1,0.2l-0.1-0.2L7.2,11L7,10.4L6.8,9.7L6.1,10.1z M7.1,10.3L7.2,11
			l0.4,1.3l-0.1,0C7.6,11.8,7.8,11.4,8,11l0.5-1.3l0.1-0.2l0.1,0.1l1.3,1l1.3,1.1L11,11.8l0-2.4V9.2l0.2,0.1
			c0.4,0.1,0.8,0.3,1.3,0.4l0.6,0.2l0.6,0.2l-0.2,0.3c-0.3-0.3-0.6-0.6-0.9-1l-0.8-1l-0.1-0.1l0.1-0.1l1.6-1.5l0,0.2
			c-0.4-0.1-0.8-0.2-1.1-0.3c-0.4-0.1-0.8-0.2-1.2-0.3l0,0l0,0c0-0.7,0-1.4,0-2l0.1,0.1l-0.9,0.5L9.4,5.3l-0.1,0l0-0.1L9,4.7
			L8.7,4.1L8,3l0.2,0L7.2,5.6L7.1,5.8L7,5.7L5.1,3.5l0.3-0.1L5.2,5.9l0,0.2L5,6.1L1.9,5.7l0.2-0.3L3.3,7l0.1,0.1L3.4,7.2
			C3.2,7.4,3.1,7.6,3,7.8L2.6,8.4C2.3,8.8,2.1,9.2,1.8,9.6L1.6,9.3c0.5-0.1,1-0.2,1.5-0.2L4,8.9c0.3,0,0.5-0.1,0.8-0.1l0.2,0L4.9,9
			l-0.8,2.3L4,11.2c0.5-0.3,1-0.5,1.4-0.8l0.7-0.4l0.7-0.4L7.1,10.3z"/>
	</g>
</g>
<g id="XMLID_84_">
	<g id="XMLID_100_">
		<path id="XMLID_101_" class="st4" d="M4.1,8.8c0.2,0.6,0,1.3-1.2,1.7c-0.1,0-0.2,0.1-0.4,0.1c0,0,0,0-0.1,0c0,0,0,0,0,0
			c-0.2,0-0.3,0-0.4-0.1C2,10.5,1.9,10.2,1.9,10c0-0.1,0-0.1,0-0.1S1.3,8.1,1.3,8C1.2,7.5,1,7.2,0.9,7c0-0.2,0-0.2,0.1-0.3
			c0.1-0.1,0.2-0.1,0.3-0.1c0.1,0,0.2,0,0.3,0c0.1-0.1,0.3-0.2,0.5-0.2c0.1,0,0.2-0.1,0.3-0.1C2.9,6.1,3.3,6.5,3.5,7
			C3.5,7.3,3.5,7.7,3.3,8C3.4,8,3.9,8.2,4.1,8.8z M2.1,7.1C2,7.1,1.9,7.2,1.8,7.2L2.1,8c0,0,0.1,0,0.2,0c0.3-0.1,0.6-0.3,0.6-0.7
			C2.7,7,2.4,7,2.1,7.1z M2.5,8.7c-0.1,0-0.2,0.1-0.2,0.1l0.3,1c0.1,0,0.1,0,0.2-0.1C3.1,9.6,3.5,9.4,3.4,9C3.3,8.6,2.9,8.6,2.5,8.7
			z"/>
	</g>
	<g id="XMLID_96_">
		<path id="XMLID_97_" class="st4" d="M6.6,7.9c0,0.1,0,0.2,0.1,0.3c0.1,0.4,0.1,0.9-0.1,1.3c-0.3,0.5-0.5,0.7-0.9,0.8
			C4.6,10.5,4,9.7,3.9,8.9c-0.2-1,0.2-2.1,1.2-2.3l0.1,0C6.2,6.4,6.6,7.6,6.6,7.9C6.6,7.8,6.6,7.8,6.6,7.9C6.6,7.8,6.6,7.8,6.6,7.9z
			 M6,8.3C5.9,7.8,5.6,7.4,5.2,7.5C4.8,7.6,4.6,8.1,4.7,8.6C4.8,9,5.1,9.4,5.5,9.4C5.9,9.3,6,8.7,6,8.3z"/>
	</g>
	<g id="XMLID_93_">
		<path id="XMLID_94_" class="st4" d="M15.1,8.1C15.1,8.1,15.1,8.2,15.1,8.1C15.1,8.2,15.1,8.2,15.1,8.1c0,0.1,0,0.3-0.1,0.3
			c0,0-0.1,0.1-0.2,0.1c0,0-0.1,0-0.2,0c-0.2,0-0.2-0.1-0.3-0.2c-0.1-0.1-0.1-0.4-0.1-0.6c0,0,0-0.1,0-0.1s0-0.5,0-0.9
			c0,0.1-0.3,0.6-0.5,0.8l0,0c-0.1,0.1-0.1,0.1-0.3,0.1c-0.2,0-0.2-0.1-0.3-0.2l-0.4-0.8c0,0.4,0,1,0,1.5c0,0.1,0,0.2-0.1,0.2
			c0,0-0.1,0.1-0.2,0.1c0,0-0.1,0-0.2,0c-0.2,0-0.2-0.1-0.3-0.2C12,8.1,12,7.8,12,7.6c0,0,0-0.1,0-0.1s0.1-1.7,0.1-1.8
			c0-0.4,0-0.6-0.1-0.8c0,0,0,0,0-0.1c0,0,0,0,0,0l0-0.1c0-0.1,0-0.2,0.2-0.3c0.1,0,0.2,0,0.3,0l0,0c0.1,0,0.1,0,0.2,0
			c0.2,0.1,0.4,0.6,0.4,0.6s0.2,0.5,0.4,1.1c0-0.1,0.4-0.9,0.4-1c0,0,0.2-0.5,0.4-0.6c0.1,0,0.2,0,0.2,0c0.2,0,0.3,0.1,0.4,0.1
			c0.1,0.1,0.1,0.4,0.1,0.6c0,0.1,0,0.1,0,0.1s0,0.2,0,0.5c0,0.3,0,0.8,0,1.1C15.1,7.6,15.1,7.9,15.1,8.1z"/>
	</g>
	<g id="XMLID_89_">
		<path id="XMLID_90_" class="st4" d="M9,6.4c0,0,0.1,0.1,0.2,0.3C9.4,7,9.5,7.5,9.5,8C9.4,8.6,9.2,8.9,8.8,9.1
			c-0.9,0.5-1.7,0-2.1-0.8C6.3,7.4,6.3,6.2,7.2,5.7l0,0C8.2,5.2,8.9,6.2,9,6.4C9,6.4,9,6.4,9,6.4C9,6.4,9,6.4,9,6.4z M8.5,7
			C8.3,6.6,8,6.4,7.6,6.6C7.2,6.8,7.2,7.4,7.4,7.8c0.2,0.4,0.6,0.7,1,0.5C8.7,8,8.7,7.5,8.5,7z"/>
	</g>
	<g id="XMLID_85_">
		<path id="XMLID_86_" class="st4" d="M12.1,7.1c0,0.1,0,0.2,0,0.3c0,0.4,0,0.9-0.3,1.3c-0.3,0.5-0.6,0.6-1,0.6
			c-1.1,0-1.5-0.9-1.5-1.8c0-1,0.5-2,1.5-2.1l0.1,0C11.9,5.5,12,6.8,12.1,7.1C12.1,7,12.1,7,12.1,7.1C12.1,7,12.1,7.1,12.1,7.1z
			 M11.4,7.3c0-0.4-0.2-0.9-0.6-0.9c-0.5,0-0.7,0.5-0.7,1c0,0.5,0.2,0.9,0.7,0.9C11.1,8.3,11.4,7.8,11.4,7.3z"/>
	</g>
</g>
</svg>
