<?xml version="1.0" encoding="utf-8"?>
<!-- Generator: Adobe Illustrator 19.0.0, SVG Export Plug-In . SVG Version: 6.00 Build 0)  -->
<svg version="1.1" id="Layer_1" xmlns="http://www.w3.org/2000/svg" xmlns:xlink="http://www.w3.org/1999/xlink" x="0px" y="0px"
	 viewBox="-96 -199.3 418.7 88" style="enable-background:new -96 -199.3 418.7 88;" xml:space="preserve">
<style type="text/css">
	.st0{fill:#09A936;}
	.st1{fill:#7CB7B9;}
	.st2{fill:#2C3D64;}
</style>
<title>logos</title>
<g id="Camada_1">
	<path class="st0" d="M197-146.4c-0.1-2.5,0.5-5,1.7-7.3c1.4-2.8,3.5-5.1,6.2-6.6c1.8-1,3.7-1.7,5.7-2.1c1.7-0.3,3.5-0.3,5.3-0.1
		c1.9,0.2,3.7,0.8,5.4,1.6c4.3,2.1,7.3,6,8.4,10.7c0.4,1.7,0.5,3.5,0.3,5.2c-0.5,5.5-3.8,10.4-8.8,12.8c-1.7,0.8-3.5,1.4-5.3,1.6
		c-0.8,0.1-1.6,0.2-2.4,0.2c-2,0-4.1-0.4-6-1.1c-1.7-0.6-3.3-1.5-4.7-2.7c-1.8-1.5-3.2-3.3-4.2-5.4c-0.7-1.5-1.1-3-1.4-4.6
		C197-144.9,197.1-145.7,197-146.4z M204.2-146.4c0,0.8,0,1.6,0.2,2.4c0.6,2.7,2.3,5.1,4.8,6.4c1.8,1,3.8,1.3,5.8,0.9
		c2.9-0.4,5.5-2.2,6.7-4.9c1.1-2.2,1.4-4.6,0.8-7c-0.5-3-2.4-5.5-5.1-6.8c-1.7-0.8-3.7-1.1-5.5-0.8c-2.4,0.3-4.5,1.6-5.8,3.5
		C204.7-150.9,204.1-148.7,204.2-146.4L204.2-146.4z"/>
	<path class="st0" d="M283.8-144c-2,0-3.9,0-5.9,0c-1.2,0-2.3-0.6-2.7-1.7c-0.5-1-0.4-2.3,0.3-3.2c0.6-0.8,1.6-1.3,2.6-1.2
		c2.3,0,4.6,0,6.9,0c0.5,0,0.5-0.1,0.4-0.6c-0.4-1.3-1.1-2.5-2.1-3.6c-1.3-1.3-3-2-4.8-2c-2.1-0.1-4.2,0.7-5.8,2.1
		c-1.2,1.2-2.1,2.7-2.5,4.4c-0.4,1.4-0.5,2.9-0.3,4.4c0.2,2,1,4,2.3,5.5c2.5,3,6.7,4,10.3,2.5c0.9-0.4,1.7-0.9,2.4-1.5
		c1.3-1.2,3.4-1.1,4.6,0.2c0.3,0.4,0.6,0.8,0.7,1.3c0.4,1.6,0.2,2.6-1.6,3.9c-1.9,1.4-4,2.3-6.3,2.8c-0.9,0.2-1.8,0.3-2.7,0.3
		c-2.1,0.1-4.2-0.1-6.2-0.8c-5.4-1.8-9.3-6.3-10.5-11.8c-0.3-1.8-0.4-3.7-0.2-5.5c0.3-2.6,1.1-5.1,2.6-7.3c1.3-1.9,2.9-3.5,4.9-4.6
		c1.8-1,3.7-1.7,5.8-1.9c2.9-0.5,6,0,8.6,1.3c2.5,1.3,4.5,3.3,5.8,5.8c0.9,1.7,1.5,3.6,1.8,5.5c0.2,1.3,0.2,2.6,0,3.8
		c-0.4,1.3-1.5,2.1-2.8,2.1C287.7-144,285.8-144,283.8-144z"/>
	<path class="st0" d="M232.7-142c0-2.2,0-4.4,0-6.6c-0.1-2.9,0.8-5.8,2.6-8.2c1.9-2.7,4.8-4.6,8.1-5.4c1.4-0.4,2.9-0.5,4.4-0.3
		c6.3,0.5,11.5,5.2,12.6,11.5c0.1,0.5,0.1,1,0.1,1.5c0,5.2,0,10.3,0,15.5c-0.1,1.8-1.5,3.2-3.2,3.3c-1.4,0.1-2.7-0.5-3.4-1.7
		c-0.4-0.7-0.6-1.4-0.5-2.2c0-4.9,0-9.9,0-14.8c0-2.3-1.2-4.5-3.3-5.5c-2.2-1.4-5-1.3-7.1,0.2c-1.8,1.2-2.9,3.2-2.9,5.4
		c0,4.9,0,9.8,0,14.7c0.1,1.2-0.4,2.4-1.3,3.2c-1.5,1.3-3.7,1.1-5-0.3c-0.6-0.7-0.9-1.5-0.9-2.4C232.7-136.9,232.7-139.4,232.7-142z
		"/>
	<path class="st0" d="M177.1-157.1c-0.1,1.7-1.5,2.9-3.1,2.9c-0.5,0-1-0.2-1.4-0.4c-1.4-0.8-3-1.3-4.6-1.7c-1.6-0.5-3.3-0.4-4.8,0.1
		c-1.2,0.4-2,1.5-2,2.8c0.1,1,0.8,1.9,1.8,2.3c1.8,0.9,3.7,1.6,5.7,2.1c2.1,0.6,4.1,1.5,5.8,2.7c1.8,1.2,2.9,3.1,3.1,5.3
		c0.2,1.7-0.1,3.4-0.7,4.9c-0.7,1.8-2,3.3-3.7,4.2c-1.9,1-3.9,1.5-6.1,1.6c-2.5,0.1-5-0.2-7.4-1c-2-0.6-3.9-1.6-5.7-2.8
		c-1-0.9-1.3-2.3-0.8-3.6c0.6-1.2,2-1.9,3.3-1.6c0.9,0.3,1.8,0.8,2.7,1.4c1.5,0.7,3,1.3,4.6,1.7c1,0.2,2.1,0.3,3.2,0.2
		c1.3,0,2.5-0.5,3.4-1.4c1-1.1,0.9-2.7-0.1-3.7c-0.1-0.1-0.2-0.2-0.3-0.2c-1.5-0.9-3-1.5-4.7-1.9c-2.1-0.5-4.2-1.3-6.2-2.2
		c-2.2-1-3.8-3-4.3-5.3c-0.3-1.5-0.3-3,0.1-4.5c1-3.7,3.7-5.6,7.2-6.6c1.2-0.3,2.4-0.5,3.7-0.4c3.4,0.1,6.7,1,9.7,2.6
		C176.5-159.4,177.1-158.3,177.1-157.1z"/>
	<path class="st0" d="M181.4-154c0-4.4,0-8.8,0-13.3c0.1-1.7,1.4-3.1,3-3.4c2-0.3,3.8,1,4.1,3c0,0.3,0.1,0.6,0,0.8
		c-0.1,1.5,0,2.9,0,4.4c0,0.4,0.1,0.5,0.5,0.5c1.7,0,3.3,0,5,0c1.8,0,3.3,1.4,3.3,3.2c0,1.8-1.4,3.3-3.2,3.3c-0.1,0-0.2,0-0.3,0
		c-1.6-0.1-3.2,0-4.8,0c-0.4,0-0.5,0.1-0.5,0.5c0,4.6,0,9.1,0,13.7c0,2.4,1.9,4.3,4.3,4.3c0.6-0.1,1.2,0,1.8,0.1
		c1.8,0.5,2.8,2.3,2.3,4.1c-0.4,1.3-1.4,2.2-2.7,2.4c-3.2,0.4-6.4-0.6-9-2.6c-2.1-1.7-3.4-4-3.9-6.6c-0.1-0.5-0.2-1.1-0.1-1.6
		C181.4-145.5,181.4-149.8,181.4-154z"/>
	<path class="st0" d="M312.7-176.4c0,6.8-4.8,12.6-11.5,13.8c-0.4,0.1-0.9,0.1-1.4,0.1c-0.5,0.1-1.1-0.3-1.2-0.8c0-0.1,0-0.2,0-0.3
		c0-1.8,0-3.6,0-5.4c0-0.6,0.4-1,1.3-1.2c2.4-0.4,4.3-2.2,4.8-4.5c0.8-3.3-1.1-6.6-4.4-7.5c-0.2-0.1-0.4-0.1-0.7-0.1
		c-0.6,0-1-0.6-1-1.1c0-1.8,0-3.7,0-5.5c0-0.6,0.4-1,1-1c0,0,0,0,0.1,0c2,0.1,4,0.7,5.8,1.7c1.3,0.7,2.4,1.6,3.4,2.6
		c1.7,1.8,2.9,4.1,3.4,6.6C312.5-178.2,312.6-177.2,312.7-176.4z"/>
	<path class="st0" d="M296.3-176.3c0,4.2,0,8.4,0,12.6c0.1,0.5-0.2,0.9-0.7,1.1c-0.4,0.2-0.9,0.1-1.3-0.3l-11.7-11.8
		c-0.9-0.9-0.9-2.4,0-3.4c3.9-3.9,7.8-7.8,11.8-11.8c0.3-0.3,0.8-0.5,1.3-0.3c0.4,0.2,0.7,0.6,0.7,1.1
		C296.3-184.7,296.3-180.5,296.3-176.3z"/>
	<polygon class="st1" points="126.7,-174.9 100.5,-174.9 103.9,-182.6 130.1,-182.6 	"/>
	<polygon class="st1" points="121.6,-163.3 95.5,-163.3 98.8,-170.9 124.9,-170.9 	"/>
	<path class="st2" d="M-53.8-146c0,0.9,0,1.7-0.1,2.6H-74c0.8,4.1,3.7,5.9,7.3,5.9c2.6-0.1,5.1-1,7.1-2.7l4.5,4.9
		c-3.3,2.9-7.6,4.5-12.1,4.3c-8.7,0-14.7-5.9-14.7-14.8c0-8.9,5.8-15,14.3-15C-59.4-160.9-53.8-154.9-53.8-146 M-73.9-148.7h12.5
		c-0.7-3.6-2.9-5.7-6.2-5.7C-71.2-154.3-73.3-152.2-73.9-148.7"/>
	<path class="st2" d="M-27.7-157v-3.1h7.4v40h-7.6v-14.7c-2.1,2.4-5.1,3.8-8.3,3.7c-7.8,0-13.7-6.4-13.7-14.9s5.9-14.9,13.7-14.9
		C-32.9-161-29.7-159.5-27.7-157 M-42-146c0,4.3,2.8,7.8,7.3,7.8c4.5,0,7.3-3.3,7.3-7.8s-3-7.8-7.3-7.8S-42-150.3-42-146"/>
	<path class="st2" d="M13.6-143.9c0,8.9-6.3,12.8-13.4,12.8s-13.4-3.9-13.4-12.8v-16.2h7.6v15.6c0,4.5,2.5,6.4,5.8,6.4
		S6-140,6-144.5v-15.6h7.6V-143.9z"/>
	<path class="st2" d="M48.3-131.8h-7.4v-3.1c-2.1,2.5-5.2,4-8.5,3.9c-7.8,0-13.7-6.4-13.7-14.9s5.9-14.9,13.7-14.9
		c3.3-0.1,6.4,1.3,8.5,3.9v-3.1h7.4V-131.8z M26.5-145.9c0,4.3,2.8,7.8,7.3,7.8s7.3-3.3,7.3-7.8s-2.9-7.8-7.3-7.8
		S26.5-150.3,26.5-145.9"/>
	<rect x="55.6" y="-173.9" class="st2" width="7.6" height="42"/>
	<path class="st2" d="M90.7-152.2c-2.8-1.4-5.9-2.2-9-2.3c-2.9,0-4.4,1-4.4,2.6c0,1.6,2,2,4.6,2.4l2.5,0.4c6.1,0.9,9.6,3.7,9.6,8.5
		c0,5.8-4.8,9.6-13,9.6c-3.9,0-8.9-0.7-12.6-3.3l3-5.8c2.9,1.9,6.2,2.9,9.6,2.8c3.5,0,5.2-1,5.2-2.7c0-1.4-1.4-2.1-4.7-2.6l-2.3-0.3
		c-6.5-0.9-9.8-3.8-9.8-8.6c0-5.8,4.5-9.3,11.9-9.3c4.1-0.1,8.2,0.8,11.8,2.7L90.7-152.2z"/>
</g>
</svg>
