<?xml version="1.0" encoding="utf-8"?>
<!-- Generator: Adobe Illustrator 19.0.0, SVG Export Plug-In . SVG Version: 6.00 Build 0)  -->
<svg version="1.1" id="Layer_1" xmlns="http://www.w3.org/2000/svg" xmlns:xlink="http://www.w3.org/1999/xlink" x="0px" y="0px"
	 viewBox="115 312 841.9 169" style="enable-background:new 115 312 841.9 169;" xml:space="preserve">
<style type="text/css">
	.st0{fill:#FFFFFF;}
	.st1{fill:#EDEDED;}
</style>
<rect x="115" y="312" class="st0" width="841.9" height="187"/>
<polygon class="st1" points="956.9,460.9 950.5,451.9 940.2,451.9 932.3,460.9 930.9,455.5 928.5,451.9 924.1,451.9 919,460.9 
	913.5,451.9 908.7,451.9 900.5,460.9 900.5,465 892.6,467.4 887.4,467.4 879.2,459.6 839.8,451.9 835,443.9 835,438.7 830.6,438.7 
	828.9,430 824.7,430 812.8,447 791.9,458.8 659.3,453.6 616.5,430 603.1,436.3 584.3,438.7 573.6,426.9 571.6,404.4 567.1,404.4 
	567.1,408.2 564.4,408.2 564.4,394.1 561.6,394.1 552.7,408.6 552.7,417.6 548.3,413.8 548.3,409.6 545.5,409.6 545.5,413.4 
	537.3,421.4 521.9,421.7 500.7,422.4 496.2,418.6 483.2,418.3 478.1,412.1 473.9,412.1 471.9,414.8 460.6,415.5 421.9,419 
	414.1,416.2 405.1,416.6 399.9,421.1 388.6,421.4 385.2,414.1 373.9,422.8 298.9,432.5 277.6,422.8 249.2,417.2 223.2,366.7 
	214.9,361.9 198.2,336.3 189.3,336.3 179.7,319.6 172.5,319.6 154.7,339.7 149.5,338.3 137.2,366.7 133.1,366.7 122.5,403.4 
	115,411.7 115,624 956.9,624 "/>
</svg>
